<svg width="1252" height="1252" xmlns="http://www.w3.org/2000/svg" preserveAspectRatio="xMidYMid meet">
 <!---->

 <g>
  <title>background</title>
  <rect fill="none" id="canvas_background" height="1254" width="1254" y="-1" x="-1"/>
 </g>
 <g>
  <title>Layer 1</title>
  <rect id="svg_3" class="background" fill-opacity="0" fill="#fff" height="1" width="1252" y="0" x="0"/>
  <g id="svg_4" class="icon-text-wrapper icon-svg-group iconsvg" fill="#00a19a">
   <g id="svg_5" class="iconsvg-imagesvg">
    <g stroke="null" id="svg_6">
     <rect stroke="null" id="svg_7" class="image-rect" height="78.59657" width="71.564648" y="891.348605" x="666.526392" stroke-width="2" fill-opacity="0" fill="#00a19a"/>
     <g stroke="null" transform="matrix(17.533688780566838,0,0,17.58623203237857,-1939.9031124045355,-1269.7595212245085) " id="svg_1">
      <svg stroke="null" id="svg_8" class="image-svg-svg primary" height="48.701694" width="60" y="74.432516" x="115.999573">
       <g stroke="null" id="svg_2">
        <svg stroke="null" id="svg_9" viewBox="-0.06015641242265701 -0.06788897514343262 20.14950942993164 16.355318069458008">
         <g stroke="null" id="svg_10">
          <g stroke="null" id="svg_11">
           <path stroke="null" id="svg_12" fill="#00a19a" d="m19.94,0l-3.94,0l-0.46,0.54l-0.43,0.52l-0.45,0.53l-3.58,4.26l-0.17,-0.2l3.22,-3.84l0.44,-0.53l0.43,-0.51l0.45,-0.54a0.14,0.14 0 0 0 0,-0.19a0.14,0.14 0 0 0 -0.2,0l-0.45,0.55l-0.43,0.52l-0.44,0.53l-3.19,3.8l-0.16,-0.19l2.89,-3.43l0.45,-0.53l0.44,-0.52l0.44,-0.54a0.14,0.14 0 0 0 0,-0.19a0.14,0.14 0 0 0 -0.19,0l-0.45,0.54l-0.44,0.52l-0.45,0.53l-2.88,3.37l-0.17,-0.21l2.53,-3l0.44,-0.53l0.44,-0.52l0.45,-0.54a0.13,0.13 0 0 0 0,-0.19a0.14,0.14 0 0 0 -0.19,0l-0.45,0.54l-0.44,0.56l-0.45,0.53l-2.5,3l-2.5,-3l-3.94,0l-0.21,-0.3l3.6,0a0.14,0.14 0 1 0 0,-0.28l-3.84,0l-0.16,-0.25l3.6,0a0.14,0.14 0 1 0 0,-0.28l-3.88,0l-0.21,-0.25l3.59,0a0.14,0.14 0 0 0 0,-0.28l-4,0l0,0.13l0.44,0.53l0.46,0.63l0.44,0.53l4.47,5.33l-0.17,0.2l-4.8,-5.71l-0.45,-0.53l-0.49,-0.53l-0.4,-0.58a0.14,0.14 0 0 0 -0.19,0a0.14,0.14 0 0 0 0,0.19l0.45,0.53l0.45,0.53l0.45,0.53l4.8,5.78l-0.16,0.19l-5.13,-6.11l-0.44,-0.53l-0.45,-0.53l-0.45,-0.58a0.14,0.14 0 0 0 -0.21,0.23l0.44,0.53l0.45,0.53l0.44,0.53l5.17,6.18l-0.17,0.2l-5.47,-6.56l-0.44,-0.53l-0.45,-0.53l-0.45,-0.58a0.14,0.14 0 0 0 -0.24,0a0.14,0.14 0 0 0 0,0.23l0.48,0.52l0.45,0.53l0.44,0.53l5.51,6.58l-5.07,6l0,0.07l3.69,0l-0.21,0.26l-3.82,0a0.14,0.14 0 1 0 0,0.28l3.59,0l-0.21,0.25l-3.85,0a0.14,0.14 0 0 0 -0.14,0.14a0.13,0.13 0 0 0 0.14,0.13l3.6,0l-0.2,0.48l-3.82,0a0.14,0.14 0 0 0 0,0.28l4,0l4.42,-5.36l0.17,0.2l-4.17,4.88a0.14,0.14 0 0 0 0,0.19a0.14,0.14 0 0 0 0.09,0a0.13,0.13 0 0 0 0.11,0l4.09,-4.87l0.16,0.2l-3.71,4.48a0.14,0.14 0 0 0 0,0.19a0.14,0.14 0 0 0 0.09,0a0.14,0.14 0 0 0 0.11,0l3.74,-4.46l0.17,0.2l-3.41,4.07a0.14,0.14 0 0 0 0,0.19a0.14,0.14 0 0 0 0.09,0a0.13,0.13 0 0 0 0.11,0l3.39,-4l2.06,2.45l3.91,0l0.22,0.27l-3.6,0a0.14,0.14 0 0 0 0,0.28l3.83,0l0.2,0.24l-3.6,0a0.14,0.14 0 0 0 -0.14,0.14a0.14,0.14 0 0 0 0.14,0.13l3.83,0l0.21,0.25l-3.55,0a0.14,0.14 0 0 0 0,0.28l4,0l0,-0.07l-0.44,-0.53l-0.44,-0.63l-0.46,-0.54l-4,-4.81l0.17,-0.2l4.35,5.19l0.45,0.54l0.43,0.52l0.45,0.53a0.13,0.13 0 0 0 0.11,0.05a0.14,0.14 0 0 0 0.09,0a0.14,0.14 0 0 0 0,-0.19l-0.44,-0.53l-0.46,-0.56l-0.46,-0.54l-4.38,-5.25l0.16,-0.21l4.7,5.59l0.46,0.54l0.43,0.51l0.45,0.53a0.13,0.13 0 0 0 0.1,0.05a0.14,0.14 0 0 0 0.09,0a0.14,0.14 0 0 0 0,-0.19l-0.44,-0.53l-0.46,-0.5l-0.46,-0.54l-4.69,-5.66l0.15,-0.2l5,6l0.46,0.54l0.43,0.51l0.44,0.53a0.13,0.13 0 0 0 0.11,0.05a0.14,0.14 0 0 0 0.09,0a0.14,0.14 0 0 0 0,-0.19l-0.45,-0.53l-0.35,-0.51l-0.46,-0.54l-5.08,-6l5.51,-6.57l0,-0.24l-3.7,0l0.21,-0.25l3.83,0a0.14,0.14 0 1 0 0,-0.28l-3.6,0l0.2,-0.24l3.83,0a0.14,0.14 0 0 0 0,-0.28l-3.58,0l0.22,-0.27l3.83,0a0.14,0.14 0 0 0 0.14,-0.14a0.14,0.14 0 0 0 -0.14,-0.19zm-15.66,14.38l3.92,-4.67l0.35,-0.41l0.34,-0.41l0.35,-0.42a0.14,0.14 0 0 0 0,-0.19a0.14,0.14 0 0 0 -0.19,0l-0.35,0.42l-0.34,0.41l-0.36,0.42l-4.08,4.85l-0.33,0l4.26,-5.08l0.35,-0.41l0.34,-0.41l0.35,-0.42a0.14,0.14 0 0 0 -0.21,-0.18l-0.35,0.42l-0.33,0.41l-0.35,0.41l-4.42,5.26l-0.34,0l4.62,-5.49l0.34,-0.41l0.34,-0.41l0.35,-0.42a0.14,0.14 0 0 0 0,-0.19a0.14,0.14 0 0 0 -0.19,0l-0.35,0.43l-0.34,0.41l-0.34,0.41l-4.79,5.67l-0.33,0l5,-5.91l0.35,-0.41l0.34,-0.41l0.35,-0.42l0,-0.16l-4.4,-5.2l1.46,0l3.6,4.28l0.35,0.42l0.34,0.4l0.35,0.41a0.14,0.14 0 0 0 0.11,0a0.13,0.13 0 0 0 0.09,0a0.14,0.14 0 0 0 0,-0.2l-0.34,-0.38l-0.34,-0.4l-0.35,-0.4l-3.45,-4.13l0.34,0l3.24,3.87l0.35,0.42l0.34,0.41l0.35,0.41a0.14,0.14 0 0 0 0.11,0.05a0.14,0.14 0 0 0 0.11,-0.23l-0.34,-0.41l-0.35,-0.39l-0.35,-0.42l-3.1,-3.7l0.31,0l2.91,3.46l0.35,0.42l0.34,0.41l0.35,0.41a0.14,0.14 0 0 0 0.11,0a0.15,0.15 0 0 0 0.09,0a0.14,0.14 0 0 0 0,-0.2l-0.33,-0.38l-0.34,-0.4l-0.35,-0.42l-2.8,-3.31l0.35,0l2.58,3.05l0.35,0.42l0.34,0.4l0.35,0.41l0.21,0l3.6,-4.29l1.46,0l-4.36,5.2l-0.35,0.42l-0.34,0.41l-0.35,0.41a0.14,0.14 0 0 0 0,0.2a0.15,0.15 0 0 0 0.09,0a0.14,0.14 0 0 0 0.11,-0.05l0.35,-0.41l0.34,-0.41l0.35,-0.42l4.52,-5.34l0.4,0l-4.77,5.61l-0.35,0.42l-0.34,0.41l-0.35,0.41a0.14,0.14 0 0 0 0,0.19a0.13,0.13 0 0 0 0.09,0a0.13,0.13 0 0 0 0.1,0l0.35,-0.41l0.34,-0.41l0.35,-0.42l4.87,-5.79l0.31,0l-5,6l-0.35,0.42l-0.34,0.41l-0.35,0.41a0.14,0.14 0 0 0 0,0.2a0.14,0.14 0 0 0 0.09,0a0.13,0.13 0 0 0 0.11,0l0.35,-0.41l0.34,-0.41l0.35,-0.42l5.2,-6.21l0.33,0l-5.4,6.43l-0.35,0.42l-0.34,0.41l-0.35,0.41l0,0.06l3.92,4.67l-1.47,0l-3.16,-3.77l-0.35,-0.41l-0.34,-0.41l-0.35,-0.41a0.14,0.14 0 0 0 -0.19,0a0.14,0.14 0 0 0 0,0.2l0.35,0.41l0.34,0.41l0.35,0.41l3,3.59l-0.33,0l-2.82,-3.29l-0.35,-0.41l-0.34,-0.41l-0.35,-0.39a0.14,0.14 0 0 0 -0.21,0.18l0.35,0.41l0.34,0.41l0.35,0.41l2.67,3.18l-0.3,0l-2.47,-2.95l-0.38,-0.43l-0.34,-0.41l-0.35,-0.42a0.14,0.14 0 0 0 -0.19,0a0.14,0.14 0 0 0 0,0.19l0.35,0.42l0.34,0.41l0.35,0.41l2.32,2.77l-0.33,0l-2.12,-2.53l-0.35,-0.41l-0.37,-0.43l-0.35,-0.41l-0.21,0l-3.16,3.79l-1.46,0z"/>
          </g>
         </g>
        </svg>
       </g>
      </svg>
     </g>
     <!---->
    </g>
   </g>
   <g stroke="null" id="svg_13">
    <g stroke="null" id="svg_14" class="tp-name iconsvg-namesvg">
     <g stroke="null" id="svg_15" transform="translate(140,89.22885131835938) scale(0.3400000035762787) ">
      <g stroke="null" id="svg_16">
       <path stroke="null" id="svg_17" d="m434.599016,2479.946377l252.565146,30.375457l-208.728739,369.310642l177.706051,321.430685l-223.734279,70.704454l-96.271494,-222.238514l-113.468854,223.439803l-231.152748,-84.948312l196.92663,-315.939077l-179.72927,-332.242288l244.978076,-59.89285l87.841416,218.806259l93.068065,-218.806259zm954.116264,14.072246l264.367256,24.025785l-125.270964,754.924496l-303.820023,6.521285l-65.417408,-391.105462l-65.248806,362.789358l-303.988624,10.811603l-126.282573,-743.94128l265.547467,-24.025785l53.446697,452.027989l71.655666,-452.027989l208.728739,0l83.457775,457.519597l42.824798,-457.519597zm301.796804,-5.491608l493.328183,0q-3.20343,51.312213 -5.901055,101.423136q-2.529023,50.110924 -6.912664,101.251524l0,0l-226.937708,12.012893l0,68.645101l196.92663,0l-10.621899,168.866948l-187.31634,5.319995l1.011609,322.460361l-270.605514,5.491608l17.028758,-785.471566zm912.303076,-8.580638l252.733748,30.375457l-208.728739,369.310642l177.537449,321.430685l-223.565677,70.704454l-96.440096,-222.238514l-113.300253,223.439803l-231.152748,-84.948312l196.758028,-315.939077l-179.72927,-332.242288l245.146678,-59.89285l87.672815,218.806259l93.068065,-218.806259z"/>
      </g>
      <!---->
      <!---->
      <!---->
      <!---->
      <!---->
      <!---->
      <!---->
     </g>
    </g>
    <!---->
   </g>
  </g>
 </g>
</svg>