<?xml version="1.0" encoding="UTF-8"?>
<svg xmlns="http://www.w3.org/2000/svg" xmlns:xlink="http://www.w3.org/1999/xlink" width="1252px" height="px" viewBox="0 0 1252 921" version="1.1">
<defs>
<clipPath id="clip1">
  <path d="M 515.53125 328.71875 L 736.472656 328.71875 L 736.472656 508.136719 L 515.53125 508.136719 Z M 515.53125 328.71875 "/>
</clipPath>
</defs>
<g id="surface1">
<g clip-path="url(#clip1)" clip-rule="nonzero">
<path style=" stroke:none;fill-rule:nonzero;fill:rgb(0%,63.137255%,60.392157%);fill-opacity:1;" d="M 734.832031 329.464844 L 691.628906 329.464844 L 686.585938 335.386719 L 681.871094 341.09375 L 676.9375 346.90625 L 637.683594 393.636719 L 635.816406 391.445312 L 671.125 349.320312 L 675.949219 343.503906 L 680.664062 337.910156 L 685.597656 331.988281 C 686.144531 331.398438 686.144531 330.492188 685.597656 329.902344 C 685.3125 329.609375 684.914062 329.441406 684.503906 329.441406 C 684.089844 329.441406 683.695312 329.609375 683.40625 329.902344 L 678.472656 335.9375 L 673.757812 341.640625 L 668.933594 347.453125 L 633.953125 389.140625 L 632.199219 387.054688 L 663.886719 349.429688 L 668.824219 343.613281 L 673.648438 337.910156 L 678.472656 331.988281 C 679.015625 331.398438 679.015625 330.492188 678.472656 329.902344 C 677.882812 329.359375 676.976562 329.359375 676.390625 329.902344 L 671.453125 335.828125 L 666.628906 341.53125 L 661.695312 347.34375 L 630.117188 384.3125 L 628.253906 382.011719 L 655.992188 349.101562 L 660.820312 343.285156 L 665.644531 337.582031 L 670.578125 331.65625 C 670.867188 331.386719 671.03125 331.011719 671.03125 330.617188 C 671.03125 330.21875 670.867188 329.84375 670.578125 329.574219 C 669.988281 329.03125 669.082031 329.03125 668.492188 329.574219 L 663.558594 335.496094 L 658.734375 341.640625 L 653.800781 347.453125 L 626.386719 380.363281 L 598.976562 347.453125 L 555.773438 347.453125 L 553.46875 344.164062 L 592.945312 344.164062 C 593.792969 344.164062 594.480469 343.476562 594.480469 342.628906 C 594.480469 341.78125 593.792969 341.09375 592.945312 341.09375 L 550.839844 341.09375 L 549.085938 338.347656 L 588.558594 338.347656 C 589.40625 338.347656 590.09375 337.660156 590.09375 336.8125 C 590.09375 335.964844 589.40625 335.277344 588.558594 335.277344 L 546.015625 335.277344 L 543.710938 332.535156 L 583.078125 332.535156 C 583.925781 332.535156 584.613281 331.847656 584.613281 331 C 584.613281 330.152344 583.925781 329.464844 583.078125 329.464844 L 539.214844 329.464844 L 539.214844 330.890625 L 544.039062 336.703125 L 549.085938 343.613281 L 553.910156 349.429688 L 602.921875 407.898438 L 601.058594 410.09375 L 548.425781 347.453125 L 543.492188 341.640625 L 538.121094 335.828125 L 533.734375 329.464844 C 533.144531 328.921875 532.238281 328.921875 531.648438 329.464844 C 531.105469 330.050781 531.105469 330.960938 531.648438 331.546875 L 536.585938 337.363281 L 541.519531 343.175781 L 546.453125 348.992188 L 599.085938 412.398438 L 597.332031 414.480469 L 541.082031 347.453125 L 536.253906 341.640625 L 531.320312 335.828125 L 526.386719 329.464844 C 525.691406 328.828125 524.609375 328.875 523.976562 329.574219 C 523.339844 330.269531 523.386719 331.351562 524.085938 331.988281 L 528.910156 337.800781 L 533.84375 343.613281 L 538.667969 349.429688 L 595.355469 417.222656 L 593.492188 419.417969 L 533.515625 347.453125 L 528.691406 341.640625 L 523.753906 335.828125 L 518.820312 329.464844 C 518.542969 329 518.042969 328.71875 517.503906 328.71875 C 516.964844 328.71875 516.46875 329 516.191406 329.464844 C 515.777344 329.75 515.53125 330.222656 515.53125 330.726562 C 515.53125 331.230469 515.777344 331.699219 516.191406 331.988281 L 521.453125 337.691406 L 526.386719 343.503906 L 531.210938 349.320312 L 591.628906 421.5 L 536.035156 487.320312 L 536.035156 488.089844 L 576.496094 488.089844 L 574.195312 490.941406 L 532.308594 490.941406 C 531.460938 490.941406 530.773438 491.628906 530.773438 492.476562 C 530.773438 493.324219 531.460938 494.011719 532.308594 494.011719 L 571.671875 494.011719 L 569.371094 496.753906 L 527.15625 496.753906 C 526.308594 496.753906 525.621094 497.441406 525.621094 498.292969 C 525.617188 498.6875 525.785156 499.070312 526.074219 499.339844 C 526.367188 499.613281 526.757812 499.75 527.15625 499.71875 L 566.628906 499.71875 L 564.4375 504.984375 L 522.550781 504.984375 C 521.703125 504.984375 521.015625 505.671875 521.015625 506.519531 C 521.015625 507.367188 521.703125 508.054688 522.550781 508.054688 L 566.410156 508.054688 L 614.875 449.253906 L 616.738281 451.449219 L 571.015625 504.984375 C 570.472656 505.570312 570.472656 506.480469 571.015625 507.066406 C 571.335938 507.175781 571.679688 507.175781 572 507.066406 C 572.382812 507.246094 572.824219 507.246094 573.207031 507.066406 L 618.054688 453.644531 L 619.808594 455.835938 L 579.128906 504.984375 C 578.585938 505.570312 578.585938 506.480469 579.128906 507.066406 C 579.449219 507.175781 579.796875 507.175781 580.117188 507.066406 C 580.5 507.230469 580.9375 507.230469 581.320312 507.066406 L 622.332031 458.140625 L 624.195312 460.335938 L 586.804688 504.984375 C 586.261719 505.570312 586.261719 506.480469 586.804688 507.066406 C 587.125 507.175781 587.472656 507.175781 587.792969 507.066406 C 588.171875 507.246094 588.613281 507.246094 588.996094 507.066406 L 626.167969 463.1875 L 648.757812 490.0625 L 691.628906 490.0625 L 694.042969 493.027344 L 654.566406 493.027344 C 653.71875 493.027344 653.035156 493.714844 653.035156 494.5625 C 653.035156 495.410156 653.71875 496.097656 654.566406 496.097656 L 696.566406 496.097656 L 698.757812 498.730469 L 659.285156 498.730469 C 658.433594 498.730469 657.75 499.417969 657.75 500.265625 C 657.804688 501.070312 658.476562 501.695312 659.285156 501.691406 L 701.28125 501.691406 L 703.582031 504.433594 L 664.65625 504.433594 C 663.808594 504.433594 663.121094 505.121094 663.121094 505.96875 C 663.121094 506.820312 663.808594 507.507812 664.65625 507.507812 L 708.515625 507.507812 L 708.515625 506.738281 L 703.691406 500.925781 L 698.867188 494.011719 L 693.824219 488.089844 L 649.964844 435.324219 L 651.828125 433.128906 L 699.523438 490.0625 L 704.460938 495.988281 L 709.175781 501.691406 L 714.109375 507.507812 C 714.394531 507.875 714.847656 508.082031 715.316406 508.054688 C 715.632812 508.164062 715.980469 508.164062 716.300781 508.054688 C 716.84375 507.464844 716.84375 506.558594 716.300781 505.96875 L 711.476562 500.15625 L 706.433594 494.011719 L 701.390625 488.089844 L 653.363281 430.496094 L 655.117188 428.195312 L 706.652344 489.515625 L 711.695312 495.4375 L 716.410156 501.035156 L 721.34375 506.847656 C 721.609375 507.1875 722.011719 507.386719 722.441406 507.394531 C 722.761719 507.503906 723.109375 507.503906 723.429688 507.394531 C 723.972656 506.808594 723.972656 505.902344 723.429688 505.3125 L 718.605469 499.5 L 713.558594 494.011719 L 708.515625 488.089844 L 657.089844 426 L 658.734375 423.804688 L 713.558594 489.625 L 718.605469 495.550781 L 723.320312 501.144531 L 728.144531 506.957031 C 728.429688 507.328125 728.882812 507.53125 729.351562 507.507812 C 729.671875 507.613281 730.015625 507.613281 730.335938 507.507812 C 730.878906 506.917969 730.878906 506.011719 730.335938 505.421875 L 725.402344 499.609375 L 721.566406 494.011719 L 716.519531 488.089844 L 660.820312 422.269531 L 721.234375 350.195312 L 721.234375 347.5625 L 680.664062 347.5625 L 682.96875 344.820312 L 724.964844 344.820312 C 725.8125 344.820312 726.5 344.132812 726.5 343.285156 C 726.5 342.4375 725.8125 341.75 724.964844 341.75 L 685.488281 341.75 L 687.683594 339.117188 L 729.679688 339.117188 C 730.527344 339.117188 731.214844 338.429688 731.214844 337.582031 C 731.214844 336.734375 730.527344 336.046875 729.679688 336.046875 L 690.425781 336.046875 L 692.835938 333.082031 L 734.832031 333.082031 C 735.679688 333.082031 736.367188 332.394531 736.367188 331.546875 C 736.554688 331.058594 736.480469 330.507812 736.171875 330.085938 C 735.859375 329.664062 735.355469 329.429688 734.832031 329.464844 Z M 563.121094 487.210938 L 606.101562 435.980469 L 609.941406 431.484375 L 613.667969 426.988281 L 617.507812 422.378906 C 618.050781 421.789062 618.050781 420.882812 617.507812 420.296875 C 616.917969 419.75 616.011719 419.75 615.421875 420.296875 L 611.585938 424.902344 L 607.855469 429.398438 L 603.910156 434.007812 L 559.171875 487.210938 L 555.554688 487.210938 L 602.265625 431.484375 L 606.101562 426.988281 L 609.832031 422.488281 L 613.667969 417.882812 C 614.066406 417.238281 613.933594 416.402344 613.359375 415.910156 C 612.789062 415.417969 611.941406 415.417969 611.367188 415.90625 L 607.527344 420.515625 L 603.910156 425.011719 L 600.070312 429.511719 L 551.605469 487.210938 L 547.878906 487.210938 L 598.535156 426.988281 L 602.265625 422.488281 L 605.992188 417.992188 L 609.832031 413.382812 C 610.375 412.796875 610.375 411.886719 609.832031 411.300781 C 609.242188 410.757812 608.335938 410.757812 607.746094 411.300781 L 603.910156 416.015625 L 600.183594 420.515625 L 596.453125 425.011719 L 543.929688 487.210938 L 540.3125 487.210938 L 595.136719 422.378906 L 598.976562 417.882812 L 602.703125 413.382812 L 606.542969 408.777344 L 606.542969 407.019531 L 558.296875 349.976562 L 574.304688 349.976562 L 613.777344 396.929688 L 617.617188 401.535156 L 621.34375 405.925781 L 625.183594 410.421875 C 625.566406 410.585938 626.003906 410.585938 626.386719 410.421875 C 626.707031 410.539062 627.054688 410.539062 627.375 410.421875 C 627.667969 410.132812 627.835938 409.738281 627.835938 409.324219 C 627.835938 408.914062 627.667969 408.515625 627.375 408.226562 L 623.648438 404.058594 L 619.917969 399.671875 L 616.082031 395.285156 L 578.25 349.976562 L 581.980469 349.976562 L 617.507812 392.429688 L 621.34375 397.039062 L 625.074219 401.535156 L 628.910156 406.035156 C 629.207031 406.390625 629.652344 406.589844 630.117188 406.582031 C 630.71875 406.59375 631.273438 406.253906 631.53125 405.710938 C 631.792969 405.167969 631.710938 404.519531 631.324219 404.058594 L 627.59375 399.5625 L 623.757812 395.285156 L 619.917969 390.675781 L 585.925781 350.085938 L 589.328125 350.085938 L 621.234375 388.042969 L 625.074219 392.652344 L 628.800781 397.148438 L 632.636719 401.644531 C 633.023438 401.8125 633.460938 401.8125 633.84375 401.644531 C 634.164062 401.746094 634.511719 401.746094 634.832031 401.644531 C 635.125 401.355469 635.292969 400.960938 635.292969 400.550781 C 635.292969 400.136719 635.125 399.742188 634.832031 399.453125 L 631.210938 395.285156 L 627.484375 390.894531 L 623.648438 386.289062 L 592.945312 349.976562 L 596.78125 349.976562 L 625.074219 383.4375 L 628.910156 388.042969 L 632.636719 392.429688 L 636.476562 396.929688 L 638.777344 396.929688 L 678.253906 349.867188 L 694.261719 349.867188 L 646.453125 406.910156 L 642.617188 411.519531 L 638.886719 416.015625 L 635.050781 420.515625 C 634.757812 420.804688 634.589844 421.199219 634.589844 421.613281 C 634.589844 422.023438 634.757812 422.417969 635.050781 422.707031 C 635.371094 422.808594 635.714844 422.808594 636.039062 422.707031 C 636.5 422.71875 636.945312 422.515625 637.242188 422.160156 L 641.082031 417.664062 L 644.808594 413.164062 L 648.648438 408.558594 L 698.210938 349.976562 L 702.59375 349.976562 L 650.292969 411.519531 L 646.453125 416.125 L 642.726562 420.625 L 638.886719 425.121094 C 638.34375 425.710938 638.34375 426.617188 638.886719 427.207031 C 639.207031 427.324219 639.558594 427.324219 639.875 427.207031 C 640.226562 427.351562 640.621094 427.351562 640.972656 427.207031 L 644.808594 422.707031 L 648.539062 418.210938 L 652.375 413.601562 L 705.773438 350.085938 L 709.175781 350.085938 L 654.347656 415.90625 L 650.511719 420.515625 L 646.78125 425.011719 L 642.945312 429.511719 C 642.652344 429.796875 642.484375 430.195312 642.484375 430.605469 C 642.484375 431.019531 642.652344 431.414062 642.945312 431.703125 C 643.265625 431.8125 643.613281 431.8125 643.933594 431.703125 C 644.316406 431.882812 644.757812 431.882812 645.136719 431.703125 L 648.976562 427.207031 L 652.703125 422.707031 L 656.542969 418.101562 L 713.558594 349.976562 L 717.179688 349.976562 L 657.96875 420.515625 L 654.128906 425.121094 L 650.402344 429.621094 L 646.5625 434.117188 L 646.5625 434.773438 L 689.546875 486.003906 L 673.429688 486.003906 L 638.777344 444.648438 L 634.941406 440.152344 L 631.210938 435.652344 L 627.375 431.15625 C 626.785156 430.613281 625.878906 430.613281 625.292969 431.15625 C 624.996094 431.445312 624.832031 431.839844 624.832031 432.253906 C 624.832031 432.664062 624.996094 433.058594 625.292969 433.347656 L 629.128906 437.847656 L 632.859375 442.34375 L 636.695312 446.84375 L 669.589844 486.222656 L 665.972656 486.222656 L 635.050781 450.132812 L 631.210938 445.636719 L 627.484375 441.136719 L 623.648438 436.859375 C 623.070312 436.371094 622.226562 436.371094 621.652344 436.863281 C 621.078125 437.355469 620.949219 438.191406 621.34375 438.835938 L 625.183594 443.332031 L 628.910156 447.828125 L 632.746094 452.328125 L 662.023438 487.210938 L 658.734375 487.210938 L 631.652344 454.851562 L 627.484375 450.132812 L 623.757812 445.636719 L 619.917969 441.027344 C 619.332031 440.484375 618.421875 440.484375 617.835938 441.027344 C 617.292969 441.617188 617.292969 442.523438 617.835938 443.113281 L 621.671875 447.71875 L 625.402344 452.21875 L 629.238281 456.714844 L 654.679688 487.101562 L 651.058594 487.101562 L 627.8125 459.347656 L 623.976562 454.851562 L 619.917969 450.132812 L 616.082031 445.636719 L 613.777344 445.636719 L 579.128906 487.210938 Z M 563.121094 487.210938 "/>
</g>
<path style=" stroke:none;fill-rule:nonzero;fill:rgb(0%,63.137255%,60.392157%);fill-opacity:1;" d="M 552.5625 533.925781 L 571.320312 536.140625 L 555.820312 563.097656 L 569.015625 586.558594 L 552.402344 591.71875 L 545.253906 575.496094 L 536.828125 591.804688 L 519.660156 585.605469 L 534.285156 562.546875 L 520.9375 538.296875 L 539.128906 533.925781 L 545.652344 549.894531 Z M 623.414062 534.953125 L 643.046875 536.703125 L 633.742188 591.804688 L 611.183594 592.28125 L 606.324219 563.734375 L 601.480469 590.214844 L 578.90625 591.003906 L 569.527344 536.703125 L 589.246094 534.953125 L 593.214844 567.945312 L 598.539062 534.953125 L 614.039062 534.953125 L 620.234375 568.34375 Z M 645.824219 534.550781 L 682.457031 534.550781 C 682.300781 537.046875 682.152344 539.515625 682.019531 541.953125 C 681.894531 544.390625 681.722656 546.855469 681.507812 549.34375 L 664.65625 550.21875 L 664.65625 555.230469 L 679.277344 555.230469 L 678.488281 567.554688 L 664.582031 567.945312 L 664.65625 591.480469 L 644.5625 591.878906 Z M 713.570312 533.925781 L 732.339844 536.140625 L 716.839844 563.097656 L 730.023438 586.558594 L 713.421875 591.71875 L 706.257812 575.496094 L 697.847656 591.804688 L 680.679688 585.605469 L 695.292969 562.546875 L 681.945312 538.296875 L 700.148438 533.925781 L 706.660156 549.894531 Z M 713.570312 533.925781 "/>
</g>
</svg>
